<svg width="32" height="32" viewBox="0 0 32 32" fill="none" xmlns="http://www.w3.org/2000/svg">
  <!-- Background circle with gradient -->
  <defs>
    <linearGradient id="bgGradient" x1="0%" y1="0%" x2="100%" y2="100%">
      <stop offset="0%" style="stop-color:#6366f1;stop-opacity:1" />
      <stop offset="100%" style="stop-color:#8b5cf6;stop-opacity:1" />
    </linearGradient>
    <linearGradient id="iconGradient" x1="0%" y1="0%" x2="100%" y2="100%">
      <stop offset="0%" style="stop-color:#ffffff;stop-opacity:1" />
      <stop offset="100%" style="stop-color:#f3f4f6;stop-opacity:1" />
    </linearGradient>
  </defs>
  
  <!-- Main background circle -->
  <circle cx="16" cy="16" r="15" fill="url(#bgGradient)" stroke="#4f46e5" stroke-width="1.5"/>
  
  <!-- AI Brain/Neural Network representation -->
  <g fill="url(#iconGradient)">
    <!-- Central node -->
    <circle cx="16" cy="16" r="2" fill="url(#iconGradient)"/>
    
    <!-- Connecting lines -->
    <path d="M16 14 L16 12 M16 20 L16 18" stroke="url(#iconGradient)" stroke-width="1.5" stroke-linecap="round"/>
    <path d="M14 16 L12 16 M20 16 L18 16" stroke="url(#iconGradient)" stroke-width="1.5" stroke-linecap="round"/>
    
    <!-- Outer nodes -->
    <circle cx="16" cy="12" r="1.5"/>
    <circle cx="16" cy="20" r="1.5"/>
    <circle cx="12" cy="16" r="1.5"/>
    <circle cx="20" cy="16" r="1.5"/>
    
    <!-- Diagonal connections -->
    <path d="M14 14 L12 12" stroke="url(#iconGradient)" stroke-width="1" stroke-linecap="round"/>
    <path d="M18 18 L20 20" stroke="url(#iconGradient)" stroke-width="1" stroke-linecap="round"/>
    <path d="M18 14 L20 12" stroke="url(#iconGradient)" stroke-width="1" stroke-linecap="round"/>
    <path d="M14 18 L12 20" stroke="url(#iconGradient)" stroke-width="1" stroke-linecap="round"/>
  </g>
  
  <!-- Sparkle effect -->
  <g fill="#fbbf24">
    <circle cx="8" cy="8" r="0.8" opacity="0.8"/>
    <circle cx="24" cy="8" r="0.8" opacity="0.6"/>
    <circle cx="8" cy="24" r="0.8" opacity="0.7"/>
    <circle cx="24" cy="24" r="0.8" opacity="0.9"/>
  </g>
</svg> 