<svg width="128" height="128" viewBox="0 0 128 128" fill="none" xmlns="http://www.w3.org/2000/svg">
  <!-- Background circle with gradient -->
  <defs>
    <linearGradient id="bgGradient" x1="0%" y1="0%" x2="100%" y2="100%">
      <stop offset="0%" style="stop-color:#6366f1;stop-opacity:1" />
      <stop offset="100%" style="stop-color:#8b5cf6;stop-opacity:1" />
    </linearGradient>
    <linearGradient id="iconGradient" x1="0%" y1="0%" x2="100%" y2="100%">
      <stop offset="0%" style="stop-color:#ffffff;stop-opacity:1" />
      <stop offset="100%" style="stop-color:#f3f4f6;stop-opacity:1" />
    </linearGradient>
  </defs>
  
  <!-- Main background circle -->
  <circle cx="64" cy="64" r="60" fill="url(#bgGradient)" stroke="#4f46e5" stroke-width="3"/>
  
  <!-- AI Brain/Neural Network representation -->
  <g fill="url(#iconGradient)">
    <!-- Central node -->
    <circle cx="64" cy="64" r="8" fill="url(#iconGradient)"/>
    
    <!-- Connecting lines -->
    <path d="M64 56 L64 48 M64 80 L64 72" stroke="url(#iconGradient)" stroke-width="4" stroke-linecap="round"/>
    <path d="M56 64 L48 64 M80 64 L72 64" stroke="url(#iconGradient)" stroke-width="4" stroke-linecap="round"/>
    
    <!-- Outer nodes -->
    <circle cx="64" cy="48" r="6"/>
    <circle cx="64" cy="80" r="6"/>
    <circle cx="48" cy="64" r="6"/>
    <circle cx="80" cy="64" r="6"/>
    
    <!-- Diagonal connections -->
    <path d="M56 56 L48 48" stroke="url(#iconGradient)" stroke-width="3" stroke-linecap="round"/>
    <path d="M72 72 L80 80" stroke="url(#iconGradient)" stroke-width="3" stroke-linecap="round"/>
    <path d="M72 56 L80 48" stroke="url(#iconGradient)" stroke-width="3" stroke-linecap="round"/>
    <path d="M56 72 L48 80" stroke="url(#iconGradient)" stroke-width="3" stroke-linecap="round"/>
  </g>
  
  <!-- Sparkle effect -->
  <g fill="#fbbf24">
    <circle cx="32" cy="32" r="2" opacity="0.8"/>
    <circle cx="96" cy="32" r="2" opacity="0.6"/>
    <circle cx="32" cy="96" r="2" opacity="0.7"/>
    <circle cx="96" cy="96" r="2" opacity="0.9"/>
  </g>
</svg> 